<?xml version="1.0" standalone="no"?>
<!DOCTYPE svg PUBLIC "-//W3C//DTD SVG 20010904//EN"
 "http://www.w3.org/TR/2001/REC-SVG-20010904/DTD/svg10.dtd">
<svg version="1.0" xmlns="http://www.w3.org/2000/svg"
 width="700.000000pt" height="700.000000pt" viewBox="0 0 700.000000 700.000000"
 preserveAspectRatio="xMidYMid meet">
<metadata>
Created by potrace 1.11, written by Peter Selinger 2001-2013
</metadata>
<g transform="translate(0.000000,700.000000) scale(0.100000,-0.100000)"
fill="#000000" stroke="none">
<path d="M0 3500 l0 -3500 3500 0 3500 0 0 3500 0 3500 -3500 0 -3500 0 0
-3500z m3650 1734 c0 -626 -1 -666 -17 -660 -10 4 -77 10 -150 13 l-133 6 0
654 0 653 150 0 150 0 0 -666z m-1897 -242 c262 -265 477 -485 477 -490 0 -4
-29 -29 -65 -55 -35 -26 -84 -72 -107 -102 l-43 -55 -108 108 c-60 59 -275
277 -479 484 l-370 378 103 110 c56 61 105 109 109 108 3 -2 221 -220 483
-486z m4134 386 c57 -57 103 -106 103 -111 0 -5 -222 -234 -492 -509 l-493
-499 -24 33 c-14 18 -61 69 -106 113 l-81 80 491 498 c269 273 492 497 495
497 2 0 51 -46 107 -102z m-2085 -1691 c222 -59 376 -179 468 -366 31 -63 70
-194 70 -238 l0 -23 -154 0 -154 0 -7 37 c-11 59 -63 151 -111 199 -92 88
-236 134 -424 134 -199 0 -335 -50 -434 -160 -63 -70 -81 -120 -81 -230 0
-113 19 -165 86 -230 61 -59 164 -104 514 -225 433 -149 558 -211 692 -345
112 -110 165 -254 166 -445 1 -129 -17 -206 -68 -304 -144 -274 -483 -427
-905 -408 -360 15 -646 161 -789 401 -42 71 -87 202 -95 281 -4 33 -9 75 -12
93 l-5 32 154 0 154 0 10 -72 c22 -151 81 -250 198 -329 158 -108 389 -142
630 -93 152 32 294 133 353 253 24 49 27 68 27 151 0 84 -4 103 -29 158 -34
74 -103 142 -192 189 -32 17 -205 86 -384 153 -365 136 -458 176 -545 228
-225 136 -308 276 -308 527 0 119 15 190 60 280 79 155 245 287 428 340 126
37 196 44 395 41 172 -3 206 -6 292 -29z"/>
</g>
</svg>
