<?xml version="1.0" standalone="no"?><!-- Generator: Gravit.io --><svg xmlns="http://www.w3.org/2000/svg" xmlns:xlink="http://www.w3.org/1999/xlink" style="isolation:isolate" viewBox="0 0 314 314" width="314" height="314"><rect x="0" y="0" width="314" height="314" transform="matrix(1,0,0,1,0,0)" fill="rgb(28,28,34)"/><rect x="209.991" y="88.648" width="63.408" height="13.838" transform="matrix(0.703,-0.712,0.703,0.712,4.743,199.55)" fill="rgb(255,255,255)"/><rect x="42.686" y="88.648" width="63.408" height="13.838" transform="matrix(0.703,0.712,-0.703,0.712,89.274,-25.384)" fill="rgb(255,255,255)"/><rect x="125.094" y="74.423" width="63.813" height="13.75" transform="matrix(0,1,-1,0,238.298,-75.702)" fill="rgb(255,255,255)"/><path d=" M 228.42 136.61 L 214.56 136.61 L 214.56 136.61 Q 211.5 119.837 190.26 119.837 L 190.26 119.837 L 190.26 119.837 Q 178.92 119.837 172.8 124.85 L 172.8 124.85 L 172.8 124.85 Q 166.68 129.864 166.68 136.884 L 166.68 136.884 L 166.68 136.884 Q 166.68 143.903 170.46 147.55 L 170.46 147.55 L 170.46 147.55 Q 174.24 151.196 182.7 153.931 L 182.7 153.931 L 206.28 162.135 L 206.28 162.135 Q 218.34 166.329 225.45 173.622 L 225.45 173.622 L 225.45 173.622 Q 232.56 180.915 232.56 194.133 L 232.56 194.133 L 232.56 194.133 Q 232.56 207.351 221.4 216.376 L 221.4 216.376 L 221.4 216.376 Q 210.24 225.401 191.52 225.401 L 191.52 225.401 L 191.52 225.401 Q 172.8 225.401 160.83 215.829 L 160.83 215.829 L 160.83 215.829 Q 148.86 206.257 148.5 188.937 L 148.5 188.937 L 162.36 188.937 L 162.36 188.937 Q 162.36 200.241 170.19 206.257 L 170.19 206.257 L 170.19 206.257 Q 178.02 212.274 190.35 212.274 L 190.35 212.274 L 190.35 212.274 Q 202.68 212.274 209.88 206.713 L 209.88 206.713 L 209.88 206.713 Q 217.08 201.152 217.08 193.586 L 217.08 193.586 L 217.08 193.586 Q 217.08 186.02 212.67 181.644 L 212.67 181.644 L 212.67 181.644 Q 208.26 177.268 199.62 174.351 L 199.62 174.351 L 179.64 166.876 L 179.64 166.876 Q 165.6 162.135 158.4 155.572 L 158.4 155.572 L 158.4 155.572 Q 151.2 149.008 151.2 136.337 L 151.2 136.337 L 151.2 136.337 Q 151.2 123.665 161.28 115.187 L 161.28 115.187 L 161.28 115.187 Q 171.36 106.709 189.54 106.709 L 189.54 106.709 L 189.54 106.709 Q 207.72 106.709 217.35 114.823 L 217.35 114.823 L 217.35 114.823 Q 226.98 122.936 228.42 136.61 L 228.42 136.61 Z " fill="rgb(28,28,34)"/><path d=" M 163.265 136.61 L 149.405 136.61 L 149.405 136.61 Q 146.345 119.837 125.105 119.837 L 125.105 119.837 L 125.105 119.837 Q 113.765 119.837 107.645 124.85 L 107.645 124.85 L 107.645 124.85 Q 101.525 129.864 101.525 136.884 L 101.525 136.884 L 101.525 136.884 Q 101.525 143.903 105.305 147.55 L 105.305 147.55 L 105.305 147.55 Q 109.085 151.196 117.545 153.931 L 117.545 153.931 L 141.125 162.135 L 141.125 162.135 Q 153.185 166.329 160.295 173.622 L 160.295 173.622 L 160.295 173.622 Q 167.405 180.915 167.405 194.133 L 167.405 194.133 L 167.405 194.133 Q 167.405 207.351 156.245 216.376 L 156.245 216.376 L 156.245 216.376 Q 145.085 225.401 126.365 225.401 L 126.365 225.401 L 126.365 225.401 Q 107.645 225.401 95.675 215.829 L 95.675 215.829 L 95.675 215.829 Q 83.705 206.257 83.345 188.937 L 83.345 188.937 L 97.205 188.937 L 97.205 188.937 Q 97.205 200.241 105.035 206.257 L 105.035 206.257 L 105.035 206.257 Q 112.865 212.274 125.195 212.274 L 125.195 212.274 L 125.195 212.274 Q 137.525 212.274 144.725 206.713 L 144.725 206.713 L 144.725 206.713 Q 151.925 201.152 151.925 193.586 L 151.925 193.586 L 151.925 193.586 Q 151.925 186.02 147.515 181.644 L 147.515 181.644 L 147.515 181.644 Q 143.105 177.268 134.465 174.351 L 134.465 174.351 L 114.485 166.876 L 114.485 166.876 Q 100.445 162.135 93.245 155.572 L 93.245 155.572 L 93.245 155.572 Q 86.045 149.008 86.045 136.337 L 86.045 136.337 L 86.045 136.337 Q 86.045 123.665 96.125 115.187 L 96.125 115.187 L 96.125 115.187 Q 106.205 106.709 124.385 106.709 L 124.385 106.709 L 124.385 106.709 Q 142.565 106.709 152.195 114.823 L 152.195 114.823 L 152.195 114.823 Q 161.825 122.936 163.265 136.61 L 163.265 136.61 Z " fill="rgb(28,28,34)"/><path d=" M 192.515 138.038 L 178.655 138.038 L 178.655 138.038 Q 175.595 121.265 154.355 121.265 L 154.355 121.265 L 154.355 121.265 Q 143.015 121.265 136.895 126.279 L 136.895 126.279 L 136.895 126.279 Q 130.775 131.293 130.775 138.312 L 130.775 138.312 L 130.775 138.312 Q 130.775 145.331 134.555 148.978 L 134.555 148.978 L 134.555 148.978 Q 138.335 152.624 146.795 155.359 L 146.795 155.359 L 170.375 163.564 L 170.375 163.564 Q 182.435 167.757 189.545 175.05 L 189.545 175.05 L 189.545 175.05 Q 196.655 182.343 196.655 195.561 L 196.655 195.561 L 196.655 195.561 Q 196.655 208.78 185.495 217.805 L 185.495 217.805 L 185.495 217.805 Q 174.335 226.83 155.615 226.83 L 155.615 226.83 L 155.615 226.83 Q 136.895 226.83 124.925 217.258 L 124.925 217.258 L 124.925 217.258 Q 112.955 207.686 112.595 190.365 L 112.595 190.365 L 126.455 190.365 L 126.455 190.365 Q 126.455 201.669 134.285 207.686 L 134.285 207.686 L 134.285 207.686 Q 142.115 213.702 154.445 213.702 L 154.445 213.702 L 154.445 213.702 Q 166.775 213.702 173.975 208.141 L 173.975 208.141 L 173.975 208.141 Q 181.175 202.581 181.175 195.014 L 181.175 195.014 L 181.175 195.014 Q 181.175 187.448 176.765 183.072 L 176.765 183.072 L 176.765 183.072 Q 172.355 178.696 163.715 175.779 L 163.715 175.779 L 143.735 168.304 L 143.735 168.304 Q 129.695 163.564 122.495 157 L 122.495 157 L 122.495 157 Q 115.295 150.436 115.295 137.765 L 115.295 137.765 L 115.295 137.765 Q 115.295 125.094 125.375 116.616 L 125.375 116.616 L 125.375 116.616 Q 135.455 108.138 153.635 108.138 L 153.635 108.138 L 153.635 108.138 Q 171.815 108.138 181.445 116.251 L 181.445 116.251 L 181.445 116.251 Q 191.075 124.364 192.515 138.038 L 192.515 138.038 Z " fill="rgb(28,28,34)"/><path d=" M 194.89 176.812 L 181.03 176.812 L 181.03 176.812 Q 177.97 160.039 156.73 160.039 L 156.73 160.039 L 156.73 160.039 Q 145.39 160.039 139.27 165.053 L 139.27 165.053 L 139.27 165.053 Q 133.15 170.066 133.15 177.086 L 133.15 177.086 L 133.15 177.086 Q 133.15 184.105 136.93 187.752 L 136.93 187.752 L 136.93 187.752 Q 140.71 191.398 149.17 194.133 L 149.17 194.133 L 172.75 202.338 L 172.75 202.338 Q 184.81 206.531 191.92 213.824 L 191.92 213.824 L 191.92 213.824 Q 199.03 221.117 199.03 234.335 L 199.03 234.335 L 199.03 234.335 Q 199.03 247.554 187.87 256.579 L 187.87 256.579 L 187.87 256.579 Q 176.71 265.604 157.99 265.604 L 157.99 265.604 L 157.99 265.604 Q 139.27 265.604 127.3 256.032 L 127.3 256.032 L 127.3 256.032 Q 115.33 246.46 114.97 229.139 L 114.97 229.139 L 128.83 229.139 L 128.83 229.139 Q 128.83 240.443 136.66 246.46 L 136.66 246.46 L 136.66 246.46 Q 144.49 252.476 156.82 252.476 L 156.82 252.476 L 156.82 252.476 Q 169.15 252.476 176.35 246.915 L 176.35 246.915 L 176.35 246.915 Q 183.55 241.355 183.55 233.788 L 183.55 233.788 L 183.55 233.788 Q 183.55 226.222 179.14 221.846 L 179.14 221.846 L 179.14 221.846 Q 174.73 217.47 166.09 214.553 L 166.09 214.553 L 146.11 207.078 L 146.11 207.078 Q 132.07 202.338 124.87 195.774 L 124.87 195.774 L 124.87 195.774 Q 117.67 189.21 117.67 176.539 L 117.67 176.539 L 117.67 176.539 Q 117.67 163.868 127.75 155.389 L 127.75 155.389 L 127.75 155.389 Q 137.83 146.911 156.01 146.911 L 156.01 146.911 L 156.01 146.911 Q 174.19 146.911 183.82 155.025 L 183.82 155.025 L 183.82 155.025 Q 193.45 163.138 194.89 176.812 L 194.89 176.812 Z " fill="rgb(255,255,255)"/></svg>